<?xml version="1.0" standalone="no"?>
<!DOCTYPE svg PUBLIC "-//W3C//DTD SVG 20010904//EN"
 "http://www.w3.org/TR/2001/REC-SVG-20010904/DTD/svg10.dtd">
<svg version="1.0" xmlns="http://www.w3.org/2000/svg"
 width="81.000000pt" height="81.000000pt" viewBox="0 0 81.000000 81.000000"
 preserveAspectRatio="xMidYMid meet">
<metadata>
Created by potrace 1.14, written by Peter Selinger 2001-2017
</metadata>
<g transform="translate(0.000000,81.000000) scale(0.100000,-0.100000)"
fill="#000000" stroke="none">
<path d="M315 771 c-11 -5 -23 -7 -27 -4 -5 2 -8 -1 -8 -6 0 -6 -7 -11 -15
-11 -62 0 -206 -166 -192 -221 3 -10 1 -22 -4 -25 -5 -3 -7 -9 -4 -14 3 -5 0
-12 -6 -16 -26 -16 14 -192 53 -234 10 -11 18 -24 18 -30 0 -5 8 -10 17 -10 9
0 13 -3 10 -6 -4 -4 13 -22 36 -40 44 -36 107 -59 138 -51 10 3 23 -1 29 -8
11 -14 92 -12 135 2 11 4 22 7 25 8 25 4 86 44 125 83 73 71 100 137 99 247 0
106 -18 154 -89 233 -64 71 -138 105 -240 109 -44 1 -89 -1 -100 -6z"/>
</g>
</svg>
